<svg width="167" height="28" viewBox="0 0 167 28" fill="none" xmlns="http://www.w3.org/2000/svg">
<path d="M157.769 28H135.969V22.2L150.009 5.56H136.689V0H157.369V5.8L143.329 22.44H157.769V28Z" fill="white"/>
<path d="M134.544 28H114.104V0H134.184V5.56H120.304V11.12H133.024V16.56H120.304V22.44H134.544V28Z" fill="white"/>
<path d="M86.4668 28V0H96.7868C99.6135 0 102.133 0.586667 104.347 1.76C106.56 2.93333 108.28 4.57333 109.507 6.68C110.76 8.76 111.387 11.1467 111.387 13.84C111.387 16.5867 110.76 19.04 109.507 21.2C108.28 23.3333 106.56 25 104.347 26.2C102.133 27.4 99.6135 28 96.7868 28H86.4668ZM97.2268 22.44C98.7201 22.44 100.053 22.08 101.227 21.36C102.427 20.64 103.347 19.6267 103.987 18.32C104.653 17.0133 104.987 15.52 104.987 13.84C104.987 12.24 104.653 10.8133 103.987 9.56C103.347 8.30667 102.427 7.33333 101.227 6.64C100.053 5.92 98.7201 5.56 97.2268 5.56H92.7068V22.44H97.2268Z" fill="white"/>
<path d="M63.9363 28H57.6963V0H64.2963L76.2163 19V0H82.4563V28H75.8563L63.9363 9.04V28Z" fill="white"/>
<path d="M54.9517 28H34.5117V0H54.5917V5.56H40.7117V11.12H53.4317V16.56H40.7117V22.44H54.9517V28Z" fill="white"/>
<path d="M6.24 28H0V0H7.64L15.28 20.52L22.88 0H30.52V28H24.28V10.72L17.84 28H12.68L6.24 10.72V28Z" fill="white"/>
<path d="M161.6 23H166.6V28H161.6V23Z" fill="#FE78AA"/>
</svg>
