<svg width="199" height="33" viewBox="0 0 199 33" fill="none" xmlns="http://www.w3.org/2000/svg">
<g clip-path="url(#clip0_204_174)">
<path d="M148.896 20.351C148.896 16.3475 145.721 13.2018 141.714 13.2018C137.764 13.2018 134.532 16.3475 134.532 20.351C134.532 24.3546 137.764 27.5002 141.714 27.5002C145.721 27.5002 148.896 24.3546 148.896 20.351ZM154.755 8.64543V32.0757H148.782V29.9595C146.703 31.6944 144.076 32.6667 141.222 32.6667C134.154 32.6667 128.635 27.1952 128.635 20.351C128.635 13.5259 134.173 8.03536 141.222 8.03536C144.076 8.03536 146.703 9.00765 148.782 10.7425V8.64543H154.755ZM174.6 26.7567H170.102C168.741 26.7567 167.853 26.1657 167.853 24.9074V13.9454H174.581V8.64543H167.853V1.97286H161.824V8.64543H157.288V13.9644H161.824V26.4135C161.824 29.5592 164.073 32.0566 168.117 32.0566H174.581V26.7567H174.6ZM188.208 32.6667C195.107 32.6667 199 29.4066 199 24.9074C199 21.7046 196.694 19.3215 191.875 18.2921L186.772 17.2626C183.823 16.7288 182.878 16.1759 182.878 15.0892C182.878 13.6785 184.296 12.8205 186.923 12.8205C189.777 12.8205 191.856 13.5831 192.461 16.1759H198.433C198.112 11.2954 194.54 8.03536 187.32 8.03536C181.083 8.03536 176.698 10.59 176.698 15.5277C176.698 18.9402 179.117 21.1708 184.315 22.2575L190.004 23.5539C192.253 23.9923 192.858 24.5833 192.858 25.4984C192.858 26.9664 191.157 27.8815 188.416 27.8815C184.976 27.8815 182.992 27.1189 182.236 24.5261H176.207C177.095 29.4066 180.762 32.6667 188.208 32.6667ZM104.537 0.333313H127.047V5.74763H110.623V13.5069H126.613V18.7687H110.623V26.6232H127.047V32.0375H104.537V0.333313Z" fill="black"/>
<path d="M93.8394 13.0112V8.75981H92.2329C89.6814 8.75981 87.7913 9.94181 86.6573 11.7911V8.93139H82.0835V32.0185H86.6951V18.9021C86.6951 15.318 88.8875 13.0112 91.9116 13.0112H93.8394ZM60.6507 18.3492C61.4823 14.8223 64.3551 12.4583 67.776 12.4583C71.197 12.4583 74.0887 14.8033 74.8636 18.3492H60.6507ZM67.8705 8.49291C61.0665 8.49291 55.8878 13.9644 55.8878 20.4845C55.8878 27.3667 61.2744 32.5332 68.2863 32.5332C72.5389 32.5332 76.0165 30.684 78.3412 27.5955L74.9959 25.1553C73.2571 27.4621 70.9702 28.5487 68.2674 28.5487C64.3362 28.5487 61.1799 25.7463 60.5373 21.9906H79.5131V20.5035C79.532 13.6022 74.599 8.49291 67.8705 8.49291ZM41.4859 28.5487C37.0066 28.5487 33.4344 24.9646 33.4344 20.5417C33.4344 16.0615 37.0444 12.5346 41.4859 12.5346C45.8707 12.5346 49.4807 16.0615 49.4807 20.5417C49.4996 24.9646 45.8896 28.5487 41.4859 28.5487ZM28.9173 32.0375H33.4911V29.1397C35.589 31.275 38.5753 32.5714 41.8072 32.5714C48.668 32.5714 54.0545 27.1761 54.0545 20.5226C54.0545 13.831 48.668 8.43572 41.8072 8.43572C38.5564 8.43572 35.6268 9.75117 33.5289 11.8673V0.333313H28.9173V32.0375ZM12.682 28.32C17.1236 28.32 20.5445 24.9265 20.5445 19.8935V0.333313H25.3451V32.0185H20.5823V29.0826C18.4277 31.294 15.4603 32.5714 12.115 32.5714C5.25425 32.5714 0 27.6336 0 20.1604V0.333313H4.81955V19.8935C4.81955 25.0218 8.20268 28.32 12.682 28.32Z" fill="#142328"/>
</g>
<defs>
<clipPath id="clip0_204_174">
<rect width="199" height="33" fill="white"/>
</clipPath>
</defs>
</svg>
